<svg xmlns="http://www.w3.org/2000/svg" xmlns:xlink="http://www.w3.org/1999/xlink" width="2000" zoomAndPan="magnify" viewBox="0 0 1500 1499.999933" height="2000" preserveAspectRatio="xMidYMid meet" version="1.0"><defs><g/><clipPath id="fd1b718bf1"><path d="M 39 50 L 1441 50 L 1441 1478 L 39 1478 Z M 39 50 " clip-rule="nonzero"/></clipPath><clipPath id="b442c81ff2"><path d="M 404.542969 -172.171875 L 1679.703125 422.480469 L 1096.777344 1672.492188 L -178.382812 1077.839844 Z M 404.542969 -172.171875 " clip-rule="nonzero"/></clipPath><clipPath id="463862f0ba"><path d="M 404.542969 -172.171875 L 1679.703125 422.480469 L 1096.777344 1672.492188 L -178.382812 1077.839844 Z M 404.542969 -172.171875 " clip-rule="nonzero"/></clipPath><clipPath id="607addcbe8"><path d="M 405.484375 -171.730469 L 1678.675781 422.003906 L 1095.871094 1671.753906 L -177.320312 1078.019531 Z M 405.484375 -171.730469 " clip-rule="nonzero"/></clipPath></defs><g clip-path="url(#fd1b718bf1)"><g clip-path="url(#b442c81ff2)"><g clip-path="url(#463862f0ba)"><g clip-path="url(#607addcbe8)"><path fill="#a60000" d="M 1379.273438 1063.699219 C 1537.515625 706.152344 1378.46875 281.992188 1024.175781 116.773438 C 714.433594 -27.671875 357.976562 73.078125 167.292969 339.042969 C 215.910156 285.246094 291.433594 222.101562 396.890625 187.953125 C 603.726562 120.695312 719.738281 157.148438 719.738281 157.148438 C 310.871094 176.921875 35.582031 547.210938 39.917969 846.921875 C 57.960938 988.347656 117.675781 1123.050781 211.679688 1231.910156 C 241.199219 1255.488281 272.78125 1271.835938 292.886719 1226.652344 L 293.144531 1226.773438 C 308.8125 1140.617188 332.734375 973.023438 320.363281 942.089844 C 304.160156 901.847656 232.4375 886.0625 221.550781 841.441406 C 210.792969 796.550781 306.8125 339.070312 306.8125 339.070312 C 306.8125 339.070312 320.023438 333.144531 327.261719 340.765625 C 334.238281 348.917969 269.589844 766.472656 276.441406 779.792969 C 283.308594 793.117188 283.679688 787.414062 289.714844 790.554688 C 294.914062 791.34375 301.726562 793.542969 311.078125 776.988281 C 320.566406 760.167969 361.480469 361.296875 363.84375 355.527344 C 366.054688 349.386719 373.101562 330.773438 385.398438 339.449219 C 397.808594 347.863281 357.632812 764.0625 361.296875 776.550781 C 365.203125 789.148438 370.773438 789.148438 376.921875 791.363281 C 382.453125 790.007812 386.066406 791.367188 391.320312 780.097656 C 396.722656 769.214844 422.144531 351.03125 435.488281 344.832031 C 448.964844 338.375 453.207031 357.992188 454.4375 364.460938 C 455.683594 370.917969 434.03125 771.914062 440.753906 789.746094 C 447.195312 807.449219 453.789062 806.617188 458.84375 807.015625 C 465.9375 805.082031 465.691406 810.535156 474.78125 798.753906 C 483.722656 786.582031 484.632812 363.503906 492.660156 356.792969 C 500.828125 350.480469 513.246094 358.871094 513.246094 358.871094 C 513.246094 358.871094 535.710938 827.167969 518.4375 869.113281 C 501.039062 911.324219 425.035156 918.027344 403.257812 954.929688 C 386.140625 983.230469 381.496094 1176.800781 383.195312 1278.242188 C 384.519531 1297.816406 389.128906 1325.78125 404.433594 1342.714844 C 429.996094 1371.308594 448.882812 1364.425781 464.167969 1332.34375 L 637.167969 971.199219 C 641.582031 958.234375 645.054688 945.15625 644.894531 934.292969 C 644.433594 922.644531 640.851562 912.144531 636.65625 904.304688 C 583.199219 853.5625 565.425781 770.453125 614.226562 660.199219 C 676.398438 520.578125 822.019531 389.800781 911.933594 431.730469 C 1001.859375 473.664062 1001.707031 672.28125 939.804688 812.027344 C 893.898438 916.105469 826.53125 958.21875 758.246094 956.109375 C 748.777344 958.878906 735.398438 963.757812 724.632812 972.128906 C 717.246094 978.167969 708.976562 990.96875 702.179688 1004.144531 L 551.296875 1364.144531 L 551.5625 1364.269531 C 551.5625 1364.269531 546.445312 1404.695312 566.007812 1412.5 C 575.910156 1416.476562 587.984375 1407.394531 597.398438 1397.742188 L 597.117188 1397.609375 C 597.117188 1397.609375 600.726562 1393.402344 607.402344 1386.0625 C 610.863281 1381.472656 613.015625 1378.230469 613.015625 1378.230469 L 613.695312 1378.871094 C 698.546875 1283.15625 1080.777344 850.984375 1114.839844 807.386719 C 1153.378906 758.363281 1246.316406 648.78125 1273.738281 687.386719 C 1301.167969 725.980469 1241.945312 891.496094 1138.808594 1054.5 C 1035.40625 1217.375 946.664062 1301.152344 884.640625 1324.839844 C 822.472656 1348.132812 787.144531 1296.359375 742.515625 1340.910156 C 712.339844 1371.269531 684.191406 1407.816406 668.988281 1428.511719 C 666.832031 1436.640625 663.917969 1456.195312 680.367188 1467.148438 C 688.746094 1473.015625 700.222656 1475.753906 710.59375 1477.324219 C 719.351562 1477.488281 728.230469 1478.023438 737.113281 1477.917969 C 1005.773438 1481.3125 1262.457031 1327.503906 1379.273438 1063.699219 " fill-opacity="1" fill-rule="evenodd"/></g></g></g></g><g fill="#ffcf00" fill-opacity="1"><g transform="translate(971.082834, 72.923988)"><g><path d="M 40.1875 0 L 31.484375 0 L 28.328125 -9.65625 L 12.296875 -9.65625 L 9.140625 0 L 0.625 0 L 15.09375 -41.890625 L 25.71875 -41.890625 Z M 19.90625 -33.140625 L 14.53125 -16.609375 L 26.046875 -16.609375 L 20.625 -33.140625 Z M 19.90625 -33.140625 "/></g></g></g><g fill="#ffcf00" fill-opacity="1"><g transform="translate(1011.901331, 72.923988)"><g><path d="M 15.609375 0.609375 C 13.109375 0.609375 10.898438 0.00390625 8.984375 -1.203125 C 7.066406 -2.421875 5.5625 -4.257812 4.46875 -6.71875 C 3.382812 -9.175781 2.84375 -12.195312 2.84375 -15.78125 C 2.84375 -19.394531 3.398438 -22.425781 4.515625 -24.875 C 5.628906 -27.332031 7.175781 -29.164062 9.15625 -30.375 C 11.132812 -31.59375 13.421875 -32.203125 16.015625 -32.203125 C 17.984375 -32.203125 19.6875 -31.863281 21.125 -31.1875 C 22.570312 -30.507812 23.789062 -29.453125 24.78125 -28.015625 L 25.375 -28.15625 L 25.375 -44.296875 L 33.3125 -44.296875 L 33.3125 0 L 25.375 0 L 25.375 -4.09375 L 24.78125 -4.21875 C 23.90625 -2.726562 22.703125 -1.550781 21.171875 -0.6875 C 19.640625 0.175781 17.785156 0.609375 15.609375 0.609375 Z M 18.1875 -6.125 C 20.425781 -6.125 22.191406 -6.921875 23.484375 -8.515625 C 24.785156 -10.117188 25.4375 -12.539062 25.4375 -15.78125 C 25.4375 -19.03125 24.785156 -21.457031 23.484375 -23.0625 C 22.191406 -24.664062 20.425781 -25.46875 18.1875 -25.46875 C 15.863281 -25.46875 14.082031 -24.6875 12.84375 -23.125 C 11.613281 -21.570312 11 -19.125 11 -15.78125 C 11 -12.457031 11.613281 -10.015625 12.84375 -8.453125 C 14.082031 -6.898438 15.863281 -6.125 18.1875 -6.125 Z M 18.1875 -6.125 "/></g></g></g><g fill="#ffcf00" fill-opacity="1"><g transform="translate(1049.769438, 72.923988)"><g><path d="M 15.609375 0.609375 C 13.109375 0.609375 10.898438 0.00390625 8.984375 -1.203125 C 7.066406 -2.421875 5.5625 -4.257812 4.46875 -6.71875 C 3.382812 -9.175781 2.84375 -12.195312 2.84375 -15.78125 C 2.84375 -19.394531 3.398438 -22.425781 4.515625 -24.875 C 5.628906 -27.332031 7.175781 -29.164062 9.15625 -30.375 C 11.132812 -31.59375 13.421875 -32.203125 16.015625 -32.203125 C 17.984375 -32.203125 19.6875 -31.863281 21.125 -31.1875 C 22.570312 -30.507812 23.789062 -29.453125 24.78125 -28.015625 L 25.375 -28.15625 L 25.375 -44.296875 L 33.3125 -44.296875 L 33.3125 0 L 25.375 0 L 25.375 -4.09375 L 24.78125 -4.21875 C 23.90625 -2.726562 22.703125 -1.550781 21.171875 -0.6875 C 19.640625 0.175781 17.785156 0.609375 15.609375 0.609375 Z M 18.1875 -6.125 C 20.425781 -6.125 22.191406 -6.921875 23.484375 -8.515625 C 24.785156 -10.117188 25.4375 -12.539062 25.4375 -15.78125 C 25.4375 -19.03125 24.785156 -21.457031 23.484375 -23.0625 C 22.191406 -24.664062 20.425781 -25.46875 18.1875 -25.46875 C 15.863281 -25.46875 14.082031 -24.6875 12.84375 -23.125 C 11.613281 -21.570312 11 -19.125 11 -15.78125 C 11 -12.457031 11.613281 -10.015625 12.84375 -8.453125 C 14.082031 -6.898438 15.863281 -6.125 18.1875 -6.125 Z M 18.1875 -6.125 "/></g></g></g><g fill="#ffcf00" fill-opacity="1"><g transform="translate(1087.637545, 72.923988)"><g/></g></g><g fill="#ffcf00" fill-opacity="1"><g transform="translate(1101.472867, 72.923988)"><g><path d="M 12.3125 0.609375 C 10.289062 0.609375 8.535156 0.234375 7.046875 -0.515625 C 5.554688 -1.265625 4.410156 -2.359375 3.609375 -3.796875 C 2.804688 -5.234375 2.40625 -6.96875 2.40625 -9 C 2.40625 -10.863281 2.804688 -12.429688 3.609375 -13.703125 C 4.410156 -14.972656 5.648438 -16.015625 7.328125 -16.828125 C 9.015625 -17.640625 11.210938 -18.265625 13.921875 -18.703125 C 15.816406 -19.015625 17.253906 -19.347656 18.234375 -19.703125 C 19.210938 -20.066406 19.875 -20.476562 20.21875 -20.9375 C 20.5625 -21.394531 20.734375 -21.976562 20.734375 -22.6875 C 20.734375 -23.695312 20.378906 -24.46875 19.671875 -25 C 18.972656 -25.539062 17.800781 -25.8125 16.15625 -25.8125 C 14.394531 -25.8125 12.722656 -25.421875 11.140625 -24.640625 C 9.554688 -23.859375 8.179688 -22.828125 7.015625 -21.546875 L 6.453125 -21.546875 L 3.125 -26.5625 C 4.726562 -28.332031 6.6875 -29.710938 9 -30.703125 C 11.3125 -31.703125 13.832031 -32.203125 16.5625 -32.203125 C 20.738281 -32.203125 23.765625 -31.3125 25.640625 -29.53125 C 27.515625 -27.757812 28.453125 -25.238281 28.453125 -21.96875 L 28.453125 -8.25 C 28.453125 -6.832031 29.070312 -6.125 30.3125 -6.125 C 30.789062 -6.125 31.257812 -6.210938 31.71875 -6.390625 L 32.109375 -6.28125 L 32.6875 -0.75 C 32.25 -0.457031 31.640625 -0.21875 30.859375 -0.03125 C 30.078125 0.144531 29.21875 0.234375 28.28125 0.234375 C 26.382812 0.234375 24.90625 -0.128906 23.84375 -0.859375 C 22.789062 -1.585938 22.035156 -2.722656 21.578125 -4.265625 L 20.96875 -4.328125 C 19.425781 -1.035156 16.539062 0.609375 12.3125 0.609375 Z M 14.84375 -5.328125 C 16.675781 -5.328125 18.140625 -5.941406 19.234375 -7.171875 C 20.335938 -8.410156 20.890625 -10.125 20.890625 -12.3125 L 20.890625 -15.53125 L 20.34375 -15.640625 C 19.863281 -15.253906 19.234375 -14.929688 18.453125 -14.671875 C 17.679688 -14.421875 16.570312 -14.171875 15.125 -13.921875 C 13.40625 -13.640625 12.164062 -13.148438 11.40625 -12.453125 C 10.65625 -11.753906 10.28125 -10.765625 10.28125 -9.484375 C 10.28125 -8.128906 10.679688 -7.097656 11.484375 -6.390625 C 12.285156 -5.679688 13.40625 -5.328125 14.84375 -5.328125 Z M 14.84375 -5.328125 "/></g></g></g><g fill="#ffcf00" fill-opacity="1"><g transform="translate(1134.78649, 72.923988)"><g/></g></g><g fill="#ffcf00" fill-opacity="1"><g transform="translate(1148.621812, 72.923988)"><g><path d="M 14.78125 0.609375 C 12.625 0.609375 10.644531 0.351562 8.84375 -0.15625 C 7.050781 -0.664062 5.519531 -1.363281 4.25 -2.25 C 2.976562 -3.132812 2.039062 -4.148438 1.4375 -5.296875 L 5.84375 -10.0625 L 6.453125 -10.0625 C 7.492188 -8.644531 8.726562 -7.582031 10.15625 -6.875 C 11.59375 -6.164062 13.15625 -5.8125 14.84375 -5.8125 C 16.382812 -5.8125 17.546875 -6.085938 18.328125 -6.640625 C 19.117188 -7.203125 19.515625 -8 19.515625 -9.03125 C 19.515625 -9.832031 19.226562 -10.503906 18.65625 -11.046875 C 18.09375 -11.585938 17.179688 -12.007812 15.921875 -12.3125 L 11.75 -13.328125 C 8.613281 -14.066406 6.320312 -15.203125 4.875 -16.734375 C 3.4375 -18.273438 2.71875 -20.234375 2.71875 -22.609375 C 2.71875 -24.566406 3.21875 -26.269531 4.21875 -27.71875 C 5.226562 -29.175781 6.644531 -30.285156 8.46875 -31.046875 C 10.289062 -31.816406 12.414062 -32.203125 14.84375 -32.203125 C 17.6875 -32.203125 20.039062 -31.789062 21.90625 -30.96875 C 23.78125 -30.144531 25.242188 -29.046875 26.296875 -27.671875 L 22.0625 -23.09375 L 21.484375 -23.09375 C 20.609375 -24.082031 19.617188 -24.804688 18.515625 -25.265625 C 17.421875 -25.722656 16.195312 -25.953125 14.84375 -25.953125 C 11.707031 -25.953125 10.140625 -24.976562 10.140625 -23.03125 C 10.140625 -22.207031 10.429688 -21.535156 11.015625 -21.015625 C 11.597656 -20.503906 12.625 -20.085938 14.09375 -19.765625 L 17.984375 -18.90625 C 21.191406 -18.21875 23.535156 -17.113281 25.015625 -15.59375 C 26.503906 -14.082031 27.25 -12.046875 27.25 -9.484375 C 27.25 -7.472656 26.75 -5.703125 25.75 -4.171875 C 24.757812 -2.648438 23.328125 -1.472656 21.453125 -0.640625 C 19.585938 0.191406 17.363281 0.609375 14.78125 0.609375 Z M 14.78125 0.609375 "/></g></g></g><g fill="#ffcf00" fill-opacity="1"><g transform="translate(1177.753317, 72.923988)"><g><path d="M 14.46875 0.609375 C 10.914062 0.609375 8.289062 -0.359375 6.59375 -2.296875 C 4.90625 -4.242188 4.0625 -7.03125 4.0625 -10.65625 L 4.0625 -31.59375 L 12 -31.59375 L 12 -11.65625 C 12 -9.726562 12.414062 -8.320312 13.25 -7.4375 C 14.082031 -6.550781 15.367188 -6.109375 17.109375 -6.109375 C 19.296875 -6.109375 21 -6.828125 22.21875 -8.265625 C 23.445312 -9.703125 24.0625 -11.96875 24.0625 -15.0625 L 24.0625 -31.59375 L 32 -31.59375 L 32 0 L 24.375 0 L 24.375 -4.640625 L 23.78125 -4.78125 C 22.769531 -2.96875 21.53125 -1.613281 20.0625 -0.71875 C 18.601562 0.164062 16.738281 0.609375 14.46875 0.609375 Z M 14.46875 0.609375 "/></g></g></g><g fill="#ffcf00" fill-opacity="1"><g transform="translate(1214.303775, 72.923988)"><g><path d="M 22.09375 0.609375 C 18.0625 0.609375 15.0625 -0.898438 13.09375 -3.921875 L 12.484375 -3.8125 L 12.484375 0 L 4.5625 0 L 4.5625 -44.296875 L 12.484375 -44.296875 L 12.484375 -27.875 L 13.09375 -27.765625 C 14.175781 -29.273438 15.457031 -30.390625 16.9375 -31.109375 C 18.425781 -31.835938 20.203125 -32.203125 22.265625 -32.203125 C 24.816406 -32.203125 27.046875 -31.597656 28.953125 -30.390625 C 30.867188 -29.191406 32.359375 -27.363281 33.421875 -24.90625 C 34.492188 -22.457031 35.03125 -19.414062 35.03125 -15.78125 C 35.03125 -12.195312 34.476562 -9.175781 33.375 -6.71875 C 32.269531 -4.257812 30.742188 -2.421875 28.796875 -1.203125 C 26.847656 0.00390625 24.613281 0.609375 22.09375 0.609375 Z M 19.6875 -6.125 C 22.007812 -6.125 23.78125 -6.898438 25 -8.453125 C 26.226562 -10.015625 26.84375 -12.457031 26.84375 -15.78125 C 26.84375 -19.125 26.226562 -21.570312 25 -23.125 C 23.78125 -24.6875 22.007812 -25.46875 19.6875 -25.46875 C 17.445312 -25.46875 15.671875 -24.664062 14.359375 -23.0625 C 13.054688 -21.457031 12.40625 -19.03125 12.40625 -15.78125 C 12.40625 -12.539062 13.054688 -10.117188 14.359375 -8.515625 C 15.671875 -6.921875 17.445312 -6.125 19.6875 -6.125 Z M 19.6875 -6.125 "/></g></g></g><g fill="#ffcf00" fill-opacity="1"><g transform="translate(1252.143249, 72.923988)"><g><path d="M 4.5625 0 L 4.5625 -44.296875 L 12.484375 -44.296875 L 12.484375 -27.46875 L 13.09375 -27.359375 C 14.144531 -28.910156 15.429688 -30.101562 16.953125 -30.9375 C 18.484375 -31.78125 20.328125 -32.203125 22.484375 -32.203125 C 29.460938 -32.203125 32.953125 -28.25 32.953125 -20.34375 L 32.953125 0 L 25.015625 0 L 25.015625 -19.34375 C 25.015625 -21.5 24.582031 -23.0625 23.71875 -24.03125 C 22.863281 -25.007812 21.523438 -25.5 19.703125 -25.5 C 17.492188 -25.5 15.738281 -24.757812 14.4375 -23.28125 C 13.132812 -21.800781 12.484375 -19.492188 12.484375 -16.359375 L 12.484375 0 Z M 4.5625 0 "/></g></g></g><g fill="#ffcf00" fill-opacity="1"><g transform="translate(1289.15202, 72.923988)"><g><path d="M 31.234375 -14.015625 L 10.921875 -14.015625 C 11.148438 -11.265625 11.929688 -9.257812 13.265625 -8 C 14.597656 -6.75 16.421875 -6.125 18.734375 -6.125 C 20.546875 -6.125 22.015625 -6.460938 23.140625 -7.140625 C 24.273438 -7.828125 25.1875 -8.859375 25.875 -10.234375 L 26.46875 -10.234375 L 31.75 -6.84375 C 30.71875 -4.632812 29.160156 -2.835938 27.078125 -1.453125 C 24.992188 -0.078125 22.210938 0.609375 18.734375 0.609375 C 15.472656 0.609375 12.648438 -0.0078125 10.265625 -1.25 C 7.890625 -2.5 6.054688 -4.347656 4.765625 -6.796875 C 3.484375 -9.253906 2.84375 -12.25 2.84375 -15.78125 C 2.84375 -19.375 3.519531 -22.398438 4.875 -24.859375 C 6.226562 -27.328125 8.0625 -29.164062 10.375 -30.375 C 12.6875 -31.59375 15.28125 -32.203125 18.15625 -32.203125 C 22.625 -32.203125 26.046875 -31.015625 28.421875 -28.640625 C 30.804688 -26.273438 32 -22.800781 32 -18.21875 C 32 -16.5625 31.941406 -15.273438 31.828125 -14.359375 Z M 24.40625 -19.140625 C 24.332031 -21.546875 23.773438 -23.296875 22.734375 -24.390625 C 21.691406 -25.492188 20.164062 -26.046875 18.15625 -26.046875 C 14.144531 -26.046875 11.789062 -23.742188 11.09375 -19.140625 Z M 24.40625 -19.140625 "/></g></g></g><g fill="#ffcf00" fill-opacity="1"><g transform="translate(1323.496836, 72.923988)"><g><path d="M 12.3125 0.609375 C 10.289062 0.609375 8.535156 0.234375 7.046875 -0.515625 C 5.554688 -1.265625 4.410156 -2.359375 3.609375 -3.796875 C 2.804688 -5.234375 2.40625 -6.96875 2.40625 -9 C 2.40625 -10.863281 2.804688 -12.429688 3.609375 -13.703125 C 4.410156 -14.972656 5.648438 -16.015625 7.328125 -16.828125 C 9.015625 -17.640625 11.210938 -18.265625 13.921875 -18.703125 C 15.816406 -19.015625 17.253906 -19.347656 18.234375 -19.703125 C 19.210938 -20.066406 19.875 -20.476562 20.21875 -20.9375 C 20.5625 -21.394531 20.734375 -21.976562 20.734375 -22.6875 C 20.734375 -23.695312 20.378906 -24.46875 19.671875 -25 C 18.972656 -25.539062 17.800781 -25.8125 16.15625 -25.8125 C 14.394531 -25.8125 12.722656 -25.421875 11.140625 -24.640625 C 9.554688 -23.859375 8.179688 -22.828125 7.015625 -21.546875 L 6.453125 -21.546875 L 3.125 -26.5625 C 4.726562 -28.332031 6.6875 -29.710938 9 -30.703125 C 11.3125 -31.703125 13.832031 -32.203125 16.5625 -32.203125 C 20.738281 -32.203125 23.765625 -31.3125 25.640625 -29.53125 C 27.515625 -27.757812 28.453125 -25.238281 28.453125 -21.96875 L 28.453125 -8.25 C 28.453125 -6.832031 29.070312 -6.125 30.3125 -6.125 C 30.789062 -6.125 31.257812 -6.210938 31.71875 -6.390625 L 32.109375 -6.28125 L 32.6875 -0.75 C 32.25 -0.457031 31.640625 -0.21875 30.859375 -0.03125 C 30.078125 0.144531 29.21875 0.234375 28.28125 0.234375 C 26.382812 0.234375 24.90625 -0.128906 23.84375 -0.859375 C 22.789062 -1.585938 22.035156 -2.722656 21.578125 -4.265625 L 20.96875 -4.328125 C 19.425781 -1.035156 16.539062 0.609375 12.3125 0.609375 Z M 14.84375 -5.328125 C 16.675781 -5.328125 18.140625 -5.941406 19.234375 -7.171875 C 20.335938 -8.410156 20.890625 -10.125 20.890625 -12.3125 L 20.890625 -15.53125 L 20.34375 -15.640625 C 19.863281 -15.253906 19.234375 -14.929688 18.453125 -14.671875 C 17.679688 -14.421875 16.570312 -14.171875 15.125 -13.921875 C 13.40625 -13.640625 12.164062 -13.148438 11.40625 -12.453125 C 10.65625 -11.753906 10.28125 -10.765625 10.28125 -9.484375 C 10.28125 -8.128906 10.679688 -7.097656 11.484375 -6.390625 C 12.285156 -5.679688 13.40625 -5.328125 14.84375 -5.328125 Z M 14.84375 -5.328125 "/></g></g></g><g fill="#ffcf00" fill-opacity="1"><g transform="translate(1356.810492, 72.923988)"><g><path d="M 15.609375 0.609375 C 13.109375 0.609375 10.898438 0.00390625 8.984375 -1.203125 C 7.066406 -2.421875 5.5625 -4.257812 4.46875 -6.71875 C 3.382812 -9.175781 2.84375 -12.195312 2.84375 -15.78125 C 2.84375 -19.394531 3.398438 -22.425781 4.515625 -24.875 C 5.628906 -27.332031 7.175781 -29.164062 9.15625 -30.375 C 11.132812 -31.59375 13.421875 -32.203125 16.015625 -32.203125 C 17.984375 -32.203125 19.6875 -31.863281 21.125 -31.1875 C 22.570312 -30.507812 23.789062 -29.453125 24.78125 -28.015625 L 25.375 -28.15625 L 25.375 -44.296875 L 33.3125 -44.296875 L 33.3125 0 L 25.375 0 L 25.375 -4.09375 L 24.78125 -4.21875 C 23.90625 -2.726562 22.703125 -1.550781 21.171875 -0.6875 C 19.640625 0.175781 17.785156 0.609375 15.609375 0.609375 Z M 18.1875 -6.125 C 20.425781 -6.125 22.191406 -6.921875 23.484375 -8.515625 C 24.785156 -10.117188 25.4375 -12.539062 25.4375 -15.78125 C 25.4375 -19.03125 24.785156 -21.457031 23.484375 -23.0625 C 22.191406 -24.664062 20.425781 -25.46875 18.1875 -25.46875 C 15.863281 -25.46875 14.082031 -24.6875 12.84375 -23.125 C 11.613281 -21.570312 11 -19.125 11 -15.78125 C 11 -12.457031 11.613281 -10.015625 12.84375 -8.453125 C 14.082031 -6.898438 15.863281 -6.125 18.1875 -6.125 Z M 18.1875 -6.125 "/></g></g></g><g fill="#ffcf00" fill-opacity="1"><g transform="translate(1394.678577, 72.923988)"><g><path d="M 8.515625 -35.375 C 7.078125 -35.375 5.910156 -35.804688 5.015625 -36.671875 C 4.117188 -37.546875 3.671875 -38.671875 3.671875 -40.046875 C 3.671875 -41.398438 4.117188 -42.507812 5.015625 -43.375 C 5.910156 -44.25 7.078125 -44.6875 8.515625 -44.6875 C 9.460938 -44.6875 10.304688 -44.484375 11.046875 -44.078125 C 11.796875 -43.679688 12.375 -43.132812 12.78125 -42.4375 C 13.195312 -41.738281 13.40625 -40.941406 13.40625 -40.046875 C 13.40625 -39.148438 13.195312 -38.347656 12.78125 -37.640625 C 12.375 -36.929688 11.796875 -36.375 11.046875 -35.96875 C 10.304688 -35.570312 9.460938 -35.375 8.515625 -35.375 Z M 4.5625 0 L 4.5625 -31.59375 L 12.484375 -31.59375 L 12.484375 0 Z M 4.5625 0 "/></g></g></g><g fill="#ffcf00" fill-opacity="1"><g transform="translate(1411.693422, 72.923988)"><g><path d="M 4.5625 0 L 4.5625 -31.59375 L 12.171875 -31.59375 L 12.171875 -26.953125 L 12.78125 -26.8125 C 14.75 -30.40625 17.9375 -32.203125 22.34375 -32.203125 C 25.988281 -32.203125 28.664062 -31.207031 30.375 -29.21875 C 32.09375 -27.226562 32.953125 -24.335938 32.953125 -20.546875 L 32.953125 0 L 25.015625 0 L 25.015625 -19.5625 C 25.015625 -21.664062 24.59375 -23.179688 23.75 -24.109375 C 22.90625 -25.035156 21.554688 -25.5 19.703125 -25.5 C 17.429688 -25.5 15.660156 -24.757812 14.390625 -23.28125 C 13.117188 -21.8125 12.484375 -19.503906 12.484375 -16.359375 L 12.484375 0 Z M 4.5625 0 "/></g></g></g><g fill="#ffcf00" fill-opacity="1"><g transform="translate(1448.702239, 72.923988)"><g><path d="M 16.390625 13.40625 C 11.171875 13.40625 7.320312 12.640625 4.84375 11.109375 C 2.363281 9.585938 1.125 7.460938 1.125 4.734375 C 1.125 3.066406 1.648438 1.703125 2.703125 0.640625 C 3.765625 -0.421875 5.289062 -1.128906 7.28125 -1.484375 L 7.28125 -2.09375 C 6.207031 -2.738281 5.4375 -3.457031 4.96875 -4.25 C 4.5 -5.039062 4.265625 -5.960938 4.265625 -7.015625 C 4.265625 -9.554688 5.914062 -11.265625 9.21875 -12.140625 L 9.21875 -12.75 C 7.519531 -13.71875 6.238281 -14.921875 5.375 -16.359375 C 4.519531 -17.804688 4.09375 -19.550781 4.09375 -21.59375 C 4.09375 -23.695312 4.570312 -25.546875 5.53125 -27.140625 C 6.5 -28.734375 7.914062 -29.972656 9.78125 -30.859375 C 11.644531 -31.753906 13.875 -32.203125 16.46875 -32.203125 C 19.101562 -32.203125 21.207031 -31.742188 22.78125 -30.828125 C 23.75 -32.242188 24.3125 -33.875 24.46875 -35.71875 L 25.0625 -36.09375 L 30.765625 -34.6875 C 30.597656 -33.1875 30.160156 -31.921875 29.453125 -30.890625 C 28.742188 -29.867188 27.644531 -28.957031 26.15625 -28.15625 L 26.15625 -27.53125 C 27.925781 -25.96875 28.8125 -23.78125 28.8125 -20.96875 C 28.8125 -19.019531 28.320312 -17.269531 27.34375 -15.71875 C 26.375 -14.175781 24.957031 -12.957031 23.09375 -12.0625 C 21.238281 -11.164062 19.03125 -10.71875 16.46875 -10.71875 L 15.265625 -10.75 C 14.503906 -10.78125 13.972656 -10.796875 13.671875 -10.796875 C 12.941406 -10.796875 12.367188 -10.597656 11.953125 -10.203125 C 11.546875 -9.816406 11.34375 -9.316406 11.34375 -8.703125 C 11.34375 -8.035156 11.609375 -7.515625 12.140625 -7.140625 C 12.679688 -6.773438 13.46875 -6.570312 14.5 -6.53125 L 21.578125 -6.28125 C 28.566406 -6.0625 32.0625 -3.050781 32.0625 2.75 C 32.0625 4.789062 31.539062 6.609375 30.5 8.203125 C 29.457031 9.796875 27.769531 11.0625 25.4375 12 C 23.101562 12.9375 20.085938 13.40625 16.390625 13.40625 Z M 16.46875 -16.265625 C 18 -16.265625 19.191406 -16.710938 20.046875 -17.609375 C 20.910156 -18.515625 21.34375 -19.796875 21.34375 -21.453125 C 21.34375 -23.117188 20.910156 -24.394531 20.046875 -25.28125 C 19.191406 -26.164062 18 -26.609375 16.46875 -26.609375 C 14.925781 -26.609375 13.734375 -26.164062 12.890625 -25.28125 C 12.046875 -24.394531 11.625 -23.117188 11.625 -21.453125 C 11.625 -19.773438 12.046875 -18.488281 12.890625 -17.59375 C 13.734375 -16.707031 14.925781 -16.265625 16.46875 -16.265625 Z M 16.390625 7.65625 C 19.097656 7.65625 21.066406 7.269531 22.296875 6.5 C 23.535156 5.738281 24.15625 4.75 24.15625 3.53125 C 24.15625 2.53125 23.835938 1.796875 23.203125 1.328125 C 22.578125 0.859375 21.578125 0.609375 20.203125 0.578125 L 13.953125 0.28125 C 13.742188 0.28125 13.546875 0.269531 13.359375 0.25 C 13.179688 0.238281 13.003906 0.234375 12.828125 0.234375 C 11.492188 0.234375 10.476562 0.519531 9.78125 1.09375 C 9.082031 1.664062 8.734375 2.457031 8.734375 3.46875 C 8.734375 4.800781 9.375 5.832031 10.65625 6.5625 C 11.9375 7.289062 13.847656 7.65625 16.390625 7.65625 Z M 16.390625 7.65625 "/></g></g></g></svg>