<?xml version="1.0" encoding="utf-8" ?><svg xmlns="http://www.w3.org/2000/svg" xmlns:xlink="http://www.w3.org/1999/xlink" width="1024" height="1024" viewBox="0 0 1024 1024"><path fill="#DDF954" d="M652.817 221.228C663.912 219.68 683.786 221.916 695.565 223.166C723.171 226.094 767.947 242.413 762.988 277.586C760.654 294.141 747.997 303.535 735.304 312.965C746.117 310.524 759.661 309.388 770.712 308.692C805.319 306.511 845.325 313.962 867.233 343.487C878.072 358.225 882.5 376.716 879.511 394.766C872.758 438.196 831.061 469.085 798.17 493.13C804.997 493.769 813.501 495.944 819.892 498.14C911.738 529.708 910.178 625.309 833.371 674.82C799.824 696.444 769.337 704.29 730.811 713.45C689.666 723.234 648.428 729.833 606.986 737.169C544.778 748.175 482.334 757.803 419.701 766.046C399.273 768.69 371.835 772.995 351.886 774.62C339.701 776.135 327.36 775.831 315.265 773.717C249.45 761.802 229.607 696.831 275.921 650.416C285.295 641.021 294.18 635.071 305.029 627.688C260.217 636.43 186.02 632.481 166.025 582.98C141.699 522.754 205.111 469.255 253.172 445.594C261.862 441.316 270.843 437.735 279.865 434.049C252.193 433.98 214.621 428.077 194.416 408.577C184.231 399.482 175.458 384.438 175.513 370.182C175.767 304.162 259.856 273.569 311.502 259.947C373.965 243.471 436.313 236.213 499.444 230.639C550.455 225.866 601.605 222.727 652.817 221.228Z"/><path d="M532.394 482.118C536.832 470.581 543.044 459.807 550.807 450.187C570.965 424.991 600.78 406.171 633.238 402.779C661.409 399.895 689.569 408.355 711.486 426.287C732.209 443.021 745.386 467.341 748.086 493.84C754.012 552.387 710.151 609.624 653.105 621.759C647.61 622.928 642.438 623.542 636.877 624.099C615.643 626.614 592.008 621.342 573.826 610.26C547.767 594.378 534.037 574.05 526.54 545.017C525.2 547.296 523.483 550.934 522.395 553.381C492.699 620.15 404.921 648.382 346.191 600.242C325.376 583.268 312.332 558.581 310.038 531.82C304.524 473.678 350.512 416.415 406.886 404.873C412.147 403.796 416.891 403.189 422.22 402.699C464.23 398.236 506.052 422.402 524.273 460.271C527.642 467.274 529.952 474.754 532.394 482.118Z"/><path fill="#FFFEFE" d="M613.25 489.716L614.306 489.767C615.772 491.428 613.674 493.584 612.363 495.893C606.483 506.257 604.416 518.751 605.512 530.545C607.082 546.564 614.968 561.297 627.427 571.487C654.518 593.498 694.126 587.372 715.569 560.314C729.975 542.134 731.648 524.839 728.83 502.426C732.614 503.597 735.61 504.71 739.307 506.156C737.991 534.948 730.915 553.353 712.604 575.763C706.712 582.733 700.041 589.006 692.723 594.458C669.707 611.459 641.289 619.542 612.846 615.116C587.532 611.243 564.809 597.433 549.715 576.747C533.828 554.947 529.987 530.068 534.197 503.87C555.164 495.437 590.769 491.223 613.25 489.716Z"/><path fill="#FFFEFE" d="M391.319 490.25C394.026 490.005 397.356 489.921 400.12 489.776C393.617 502.785 390.212 512.791 391.319 527.74C392.493 543.864 400.085 558.843 412.393 569.324C424.972 580.045 441.352 585.223 457.808 583.679C474.818 581.911 490.424 573.439 501.172 560.137C516.198 541.707 517.511 524.415 515.273 502.055L524.549 505.411C522.034 535.821 518.098 549.738 499.518 574.195C492.342 582.861 483.98 590.472 474.679 596.803C428.544 628.439 365.528 620.546 333.573 573.19C319.903 552.838 314.888 527.886 319.632 503.832C344.698 495.923 364.777 491.942 391.319 490.25Z"/><path fill="#DDF954" d="M426.134 411.231C461.97 409.978 494.164 427.262 512.62 457.959C519.979 470.199 522.54 480.98 524.246 494.949C483.495 482.416 465.484 477.44 422.378 475.698C385.815 475.285 356.875 482.854 322.271 493.831C327.315 476.956 336.115 461.442 348.012 448.455C368.514 425.915 395.63 412.688 426.134 411.231Z"/><path fill="#DDF954" d="M635.533 411.688C656.239 409.16 681.886 416.366 698.744 428.306C724.404 446.48 733.627 466.087 739.302 495.666C702.675 483.36 681.319 478.436 643.186 476.012C600.259 475.125 577.837 480.743 536.654 494.356C541.39 480.377 548.367 467.261 557.312 455.521C577.656 429.115 602.936 415.945 635.533 411.688Z"/><path d="M427.256 293.208C434.202 292.818 441.605 294.199 447.47 298.076C452.261 301.267 455.926 305.883 457.947 311.272C466.262 332.917 448.083 351.945 449.458 358.891L450.261 359.416C452.979 359.32 455.317 358.604 457.652 357.174C479.628 343.713 498.272 325.277 520.863 312.728C533.933 305.845 549.457 300.36 564.136 304.693C583.573 310.429 586.773 327.35 579.406 343.996C577.326 348.695 575.061 354.546 573.456 359.474C596.873 351.497 616.428 329.258 640.271 320.44C654.922 315.021 674.072 310.305 683.937 327.27C690.786 334.469 681.931 356.647 684.435 361.046C691.244 373.013 741.094 344.622 747.489 341.284C751.091 349.435 754.623 357.616 758.088 365.826C742.253 375.662 726.136 385.224 708.193 390.808C695.62 394.72 680.867 396.698 668.795 390.131C657.736 384.115 655.269 371.737 656.773 360.261C657.023 357.163 658.353 352.616 657.323 349.632C655.486 344.312 647.04 348.704 643.829 350.125C617.565 362.425 569.9 415.549 544.09 378.481C535.11 365.584 553.42 343.38 550.675 335.612C541.151 324.708 490.677 371.072 480.371 376.854C468.531 383.637 455.15 392.992 440.816 391.022C417.726 387.849 412.018 367.365 421.287 348.354C424.098 342.59 428 336.268 429.161 329.983C429.792 326.572 427.335 322.998 423.441 323.536C385.656 331.631 350.7 364.782 326.314 392.228C319.449 386.873 311.928 379.941 305.258 374.138C314.14 364.343 324.911 352.029 334.47 343.235C358.325 321.292 394.492 295.93 427.256 293.208Z"/></svg>