<?xml version="1.0" encoding="utf-8" ?><svg xmlns="http://www.w3.org/2000/svg" xmlns:xlink="http://www.w3.org/1999/xlink" width="1024" height="1024" viewBox="0 0 1024 1024"><path fill="#DDF853" d="M600.803 324.211C643.447 323.331 674.682 357.555 676.568 398.992C679.239 457.682 654.873 518.287 616.246 561.88C573.746 609.658 504.232 639.627 441.809 614.215C422.83 606.489 407.598 592.557 389.099 583.885C378.275 578.811 369.163 579.586 359.449 586.47C342.428 598.128 344.956 618.496 340.083 635.966C317.781 715.915 207.589 725.558 177.463 645.82C172.886 633.704 172.315 624.709 171.494 612.152C188.702 609.898 205.347 604.489 220.593 596.197C220.535 602.805 220.273 609.411 220.685 616.008C222.13 639.109 237.941 654.183 261.282 652.133C279.251 649.057 290.347 636.791 295.807 619.834C297.31 615.168 298.43 608.417 299.46 603.504C300.923 596.462 302.824 589.518 305.15 582.713C313.999 557.357 329.806 543.109 354.795 534.11C385.601 522.496 413.458 539.064 438.759 555.219C453.815 564.833 466.236 571.372 484.609 572.398C516.301 574.169 543.348 561.96 566.639 541.157C602.487 509.139 624.41 461.564 627.264 413.738C627.992 402.687 627.003 387.872 618.781 379.428C604.733 365 581.886 375.022 579.579 394.032C577.869 408.126 578.652 421.999 578.689 435.962C578.758 462.604 578.223 489.548 578.887 516.09L578.676 516.422C572.257 526.669 558.383 538.305 548.976 546.519C543.818 528.583 539.017 519.323 529.344 503.694C528.316 474.89 529.38 445.641 528.958 416.782C528.803 406.179 528.563 394.841 530.889 384.505C533.742 371.573 539.824 359.574 548.569 349.629C561.821 334.434 580.668 325.262 600.803 324.211Z"/><path fill="#DDF853" d="M778.317 451.71C856.85 446.797 911.742 537.667 841.312 589.89C811.886 611.709 784.644 594.847 753.58 602.699C739.42 606.417 727.364 615.7 720.151 628.439C716.267 635.145 713.385 642.467 709.291 649.214C662.604 726.154 557.187 716.907 535.108 625.998C541.436 623.142 548.704 620.853 555.329 617.831C564.9 613.465 572.511 608.962 581.468 603.507C581.31 627.338 592.349 645.425 615.752 651.982C656.209 659.407 672.296 618.063 689.815 591.213C696.36 581.182 711.724 568.576 722.111 562.959C739.79 553.398 761.307 551.599 781.115 551.501C790.218 551.423 803.721 554.689 812.17 550.168C837.249 536.747 819.403 508.754 799.071 503.255C781.111 498.398 765.164 500.189 749.363 509.027C728.022 520.965 718.589 538.813 712.073 561.466C688.748 576.919 680.477 588.612 665.977 611.224C664.031 603.154 662.786 596.07 662.188 587.792C659.44 553.663 670.643 519.877 693.239 494.152C714.743 469.147 745.407 453.851 778.317 451.71Z"/><path fill="#DDF853" d="M235.612 324.68C265.755 320.613 297.176 339.167 309.102 366.763C324.338 402.016 314.467 449.225 302.178 483.934C285.887 529.945 254.64 571.2 209.997 592.376C179.42 607.088 146.152 606.324 114.82 594.994C102.7 589.649 85.2412 586.515 79.5771 572.998C74.421 560.693 79.2483 544.118 92.1635 539.046C104.187 534.324 111.058 539.179 121.632 544.171C145.858 555.607 166.187 555.547 190.949 545.96C201.272 541.576 210.699 535.33 218.761 527.535C249.332 498.19 266.984 450.063 267.998 407.936C268.399 391.264 262.72 372.6 242.254 372.726C236.888 372.803 231.775 375.023 228.056 378.891C219.794 387.344 220.38 399.585 220.432 410.472C220.469 418.398 220.455 426.329 220.472 434.256C220.454 460.425 220.569 486.593 220.816 512.761C209.487 526.414 189.557 541.096 171.384 543.264C170.985 531.763 171.305 519.788 171.31 508.25L171.135 453.115L171.088 417.498C171.085 407.805 170.844 396.078 172.525 386.651C174.638 374.386 179.63 362.797 187.092 352.837C198.777 337.258 216.289 327.096 235.612 324.68Z"/><path fill="#DDF853" d="M415.334 451.72C465.232 450.521 512.427 484.231 532.136 529.278C535.166 536.203 537.136 544.685 539.146 552.061C522.108 559.959 511.479 563.002 492.818 563.133C491.75 558.391 490.232 553.761 488.284 549.307C470.298 508.252 425.9 489.107 384.43 507.524C375.014 511.91 370.103 516.99 362.166 522.853C359.93 524.505 349.905 526.775 346.298 528.287C323.018 537.887 305.3 557.461 298.057 581.578C297.092 584.843 296.48 587.437 295.79 590.725C295.183 593.619 294.858 598.86 293.842 601.335C292.466 597.104 292.027 591.803 291.843 587.375C290.53 552.867 302.826 519.225 326.082 493.698C350.2 467.581 379.836 453.25 415.334 451.72Z"/><path fill="#DDF853" d="M355.08 607.277C355.785 607.822 359.563 618.844 360.752 621.101C377.355 652.609 427.795 661.711 456.407 641.814C461.123 638.534 464.437 635.448 468.611 631.159C488.524 633.697 509.374 630.942 528.889 627.093C523.224 641.888 511.636 656.304 500.625 667.44C480.953 686.151 455.615 697.785 428.603 700.51C402.724 703.119 376.723 696.904 354.821 682.874C347.803 678.303 340.271 671.883 333.726 666.479C342.137 656.231 348.872 638.951 351.301 626.008C352.419 620.055 352.864 612.858 355.08 607.277Z"/><path fill="#DDF853" d="M848.499 621.6C860.313 621.145 870.278 626.879 874.072 638.419C876.129 644.859 875.482 651.858 872.28 657.812C863.656 673.533 833.952 691.979 816.545 696.542C782.435 705.483 754.848 701.458 724.642 684.969C717.445 680.843 711.634 676.304 705.432 670.854L730.72 627.945C753.649 652.19 792.393 662.822 820.468 640.57C829.007 633.802 838.065 624.485 848.499 621.6Z"/></svg>