<?xml version="1.0" encoding="utf-8" ?><svg xmlns="http://www.w3.org/2000/svg" xmlns:xlink="http://www.w3.org/1999/xlink" width="1024" height="1024" viewBox="0 0 1024 1024"><path fill="#141414" d="M596.517 324.688C611.931 322.024 632.85 329.259 645.163 338.364C661.316 350.309 672.89 370.28 675.234 390.251C681.575 446.268 661.44 500.185 629.274 545.267C585.57 606.52 500.254 647.439 428.915 607.769C414.814 599.928 388.575 578.279 371.84 581.033C343.659 585.67 344.509 618.561 338.728 639.755C322.075 694.606 253.566 719.576 206.83 685.333C188.538 671.931 177.79 652.763 173.633 630.858C172.451 624.628 172.515 618.854 171.602 612.824L171.521 612.315C192.333 608.951 201.84 605.222 220.547 596.601C219.593 615.083 219.85 637.246 238.255 647.572C243.773 650.668 251.302 652.565 257.598 652.508C296.702 647.462 295.261 615.075 304.53 585.056C312.145 560.392 326.754 545.823 350.113 535.94C380.204 522.228 409.742 536.651 435.332 553.237C455.715 566.448 472.513 574.504 498.117 572.43C532.838 569.616 560.778 550.108 582.861 524.154C605.988 496.974 620.817 463.128 625.794 427.808C627.963 412.357 630.415 388.657 616.724 377.432C612.442 373.852 606.889 372.163 601.338 372.753C588.842 374.056 580.921 382.452 579.383 394.571C577.927 406.039 577.978 416.581 577.992 428.081L578.005 462.374C577.99 473.556 578.056 484.738 578.202 495.918C578.301 502.032 578.17 509.232 579.102 515.21C573.122 525.566 558.133 538.271 549.005 546.528C546.475 538.251 543.427 530.141 539.88 522.246C536.674 515.258 529.946 507.59 529.46 500.162C528.569 486.558 528.994 471.508 529.013 457.792L528.986 421.406C528.981 409.074 528.605 394.95 531.314 382.966C533.887 372.087 538.813 361.904 545.746 353.135C558.742 336.596 575.71 327.189 596.517 324.688Z"/><path fill="#141414" d="M780.028 451.7C784.269 451.27 788.911 451.451 793.147 451.864C828.386 455.298 861.436 479.205 871.056 514.021C875.498 530.734 873.268 548.52 864.838 563.619C859.463 572.888 852.376 581.05 843.954 587.673C808.869 615.576 776.999 588.569 740.394 608.029C724.986 616.22 719.531 629.458 711.785 644.198C698.291 669.876 675.742 689.578 647.621 697.597C625.163 704.155 601.013 701.419 580.592 690.004C555.061 675.627 542.784 653.107 535.152 625.906C552.594 618.89 564.943 613.316 581.148 603.752C581.476 628.264 592.881 646.819 617.723 652.416C622.635 653.566 629.757 653.069 634.609 651.81C665.63 643.764 676.525 607.803 694.491 585.353C701.25 576.907 714.217 567.18 723.809 562.288C740.812 553.617 761.394 551.464 780.294 551.515C790.344 551.542 803.279 554.461 812.76 549.958C817.947 547.505 821.883 543.011 823.632 537.547C825.326 532.377 824.713 527.412 822.273 522.615C809.145 496.806 773.846 495.818 751.027 508.127C727.758 520.678 719.488 537.113 712.007 561.274C692.582 574.922 677.009 590.196 666.163 611.631C655.532 569.859 664.665 526.853 693.144 494.154C716.296 467.571 745.204 454.507 780.028 451.7Z"/><path fill="#141414" d="M236.846 324.69C244.211 323.123 258.614 325.603 265.757 327.978C284.241 334.109 299.464 347.45 307.967 364.97C324.623 399.036 314.129 449.113 302.113 483.558C286.326 528.809 254.523 570.817 210.703 591.921C179.526 606.936 147.562 606.358 115.499 595.031C103.092 590.183 85.8409 586.28 79.7361 573.044C74.062 560.743 79.6914 543.934 92.5446 538.949C104.307 534.387 115.852 541.468 126.384 546.209C148.404 556.121 169.203 554.206 191.242 545.577C238.421 525.28 263.595 464.368 267.604 415.886C268.495 404.922 268.259 388.661 260.077 380.167C246.273 365.838 223.53 373.244 221.154 393.085C219.477 407.086 220.062 420.6 220.083 434.194L220.517 513.09C206.432 529.245 192.135 538.364 171.345 543.36C170.904 513.022 171.405 481.917 171.093 451.473C170.919 434.504 169.994 401.026 172.892 385.556C175.059 373.612 179.997 362.342 187.308 352.652C200.052 335.861 216.257 327.464 236.846 324.69Z"/><path fill="#141414" d="M409.83 452.209C461.766 447.769 512.592 483.809 532.5 530.576C535.426 537.448 537.303 544.747 539.161 551.961C522.774 559.844 511.022 562.471 492.947 563.121C492.38 560.9 491.735 558.698 491.015 556.521C484.43 536.498 469.142 517.691 450.145 508.367C430.11 498.534 410.767 498.334 389.886 505.393C374.581 510.837 372.845 516.47 360.77 523.297C355.63 526.203 345.543 527.85 336.739 532.83C334.476 534.113 332.274 535.502 330.14 536.991C305.243 554.374 298.676 574.643 293.655 602.67C293.255 599.936 292.784 596.977 292.513 594.249C289.025 559.552 299.723 524.921 322.172 498.237C345.326 470.156 374.002 455.729 409.83 452.209Z"/><path fill="#141414" d="M354.746 608.22C357.77 610.965 360.707 624.819 369.044 632.616C383.177 645.834 400.517 652.645 419.901 652.411C440.06 652.168 454.517 645.619 468.34 631.398C490.775 632.387 506.996 632.152 529.272 626.875C520.937 644.385 513.344 653.321 500.567 667.318C467.752 697.796 423.459 709.084 380.606 694.997C362.311 688.983 347.981 679.009 333.666 666.517C342.086 656 347.711 641.535 350.58 628.464C352.045 621.792 352.769 614.747 354.746 608.22Z"/><path fill="#141414" d="M736.369 633.397C752.533 645.722 770.346 654.818 791.54 652.609C800.645 651.66 809.171 647.794 816.957 642.871C832.097 633.3 845.823 612.456 865.252 626.787C870.644 630.765 873.827 635.733 874.924 642.323C876.253 649.718 873.318 657.122 868.61 662.834C852.233 682.705 824.449 696.744 799.215 700.219C768.581 704.438 727.891 692.586 705.42 670.809L719.307 647.633C720.656 645.347 725.129 637.377 726.288 635.915C727.262 633.809 729.453 630.168 730.654 628.023L736.369 633.397Z"/><path fill="#030303" d="M730.654 628.023L736.369 633.397C733.655 632.985 732.117 632.664 729.776 634.181C728.735 634.855 727.129 636.272 726.288 635.915C727.262 633.809 729.453 630.168 730.654 628.023Z"/></svg>