<svg xmlns="http://www.w3.org/2000/svg" xmlns:xlink="http://www.w3.org/1999/xlink" width="1080" zoomAndPan="magnify" viewBox="0 0 810 1012.49997" height="1350" preserveAspectRatio="xMidYMid meet" version="1.0"><defs><clipPath id="eb1dc4194f"><path d="M 29 130 L 781 130 L 781 881 L 29 881 Z M 29 130 " clip-rule="nonzero"/></clipPath><clipPath id="89b2bc43e3"><path d="M 460.257812 151.855469 L 471.179688 161.867188 C 506.882812 194.59375 552.941406 213.742188 601.324219 215.976562 L 616.007812 216.652344 C 658.433594 218.613281 692.386719 252.566406 694.347656 294.992188 L 695.023438 309.675781 C 697.257812 358.058594 716.40625 404.117188 749.132812 439.820312 L 759.144531 450.742188 C 787.804688 482.007812 787.804688 529.992188 759.144531 561.257812 L 749.132812 572.179688 C 716.40625 607.882812 697.257812 653.941406 695.023438 702.324219 L 694.347656 717.007812 C 692.390625 759.347656 658.339844 793.140625 615.984375 794.769531 L 601.347656 795.335938 C 552.984375 797.195312 506.855469 816.167969 471.179688 848.871094 L 460.257812 858.878906 C 428.992188 887.539062 381.007812 887.539062 349.742188 858.878906 L 338.820312 848.871094 C 303.144531 816.167969 257.011719 797.195312 208.652344 795.335938 L 194.015625 794.769531 C 151.660156 793.140625 117.609375 759.347656 115.652344 717.007812 L 114.976562 702.324219 C 112.742188 653.941406 93.59375 607.882812 60.867188 572.179688 L 50.855469 561.257812 C 22.195312 529.992188 22.195312 482.007812 50.855469 450.742188 L 60.867188 439.820312 C 93.59375 404.117188 112.742188 358.058594 114.976562 309.675781 L 115.652344 294.992188 C 117.613281 252.566406 151.566406 218.613281 193.992188 216.652344 L 208.675781 215.976562 C 257.058594 213.742188 303.117188 194.59375 338.820312 161.867188 L 349.742188 151.855469 C 381.007812 123.195312 428.992188 123.195312 460.257812 151.855469 Z M 460.257812 151.855469 " clip-rule="nonzero"/></clipPath><clipPath id="3d4db8031f"><path d="M 0 0 L 752 0 L 752 751 L 0 751 Z M 0 0 " clip-rule="nonzero"/></clipPath><clipPath id="da4c1f5aef"><path d="M 431.257812 21.855469 L 442.179688 31.867188 C 477.882812 64.59375 523.941406 83.742188 572.324219 85.976562 L 587.007812 86.652344 C 629.433594 88.613281 663.386719 122.566406 665.347656 164.992188 L 666.023438 179.675781 C 668.257812 228.058594 687.40625 274.117188 720.132812 309.820312 L 730.144531 320.742188 C 758.804688 352.007812 758.804688 399.992188 730.144531 431.257812 L 720.132812 442.179688 C 687.40625 477.882812 668.257812 523.941406 666.023438 572.324219 L 665.347656 587.007812 C 663.390625 629.347656 629.339844 663.140625 586.984375 664.769531 L 572.347656 665.335938 C 523.984375 667.195312 477.855469 686.167969 442.179688 718.871094 L 431.257812 728.878906 C 399.992188 757.539062 352.007812 757.539062 320.742188 728.878906 L 309.820312 718.871094 C 274.144531 686.167969 228.011719 667.195312 179.652344 665.335938 L 165.015625 664.769531 C 122.660156 663.140625 88.609375 629.347656 86.652344 587.007812 L 85.976562 572.324219 C 83.742188 523.941406 64.59375 477.882812 31.867188 442.179688 L 21.855469 431.257812 C -6.804688 399.992188 -6.804688 352.007812 21.855469 320.742188 L 31.867188 309.820312 C 64.59375 274.117188 83.742188 228.058594 85.976562 179.675781 L 86.652344 164.992188 C 88.613281 122.566406 122.566406 88.613281 164.992188 86.652344 L 179.675781 85.976562 C 228.058594 83.742188 274.117188 64.59375 309.820312 31.867188 L 320.742188 21.855469 C 352.007812 -6.804688 399.992188 -6.804688 431.257812 21.855469 Z M 431.257812 21.855469 " clip-rule="nonzero"/></clipPath><clipPath id="da136f2716"><rect x="0" width="752" y="0" height="751"/></clipPath></defs><g clip-path="url(#eb1dc4194f)"><g clip-path="url(#89b2bc43e3)"><g transform="matrix(1, 0, 0, 1, 29, 130)"><g clip-path="url(#da136f2716)"><g clip-path="url(#3d4db8031f)"><g clip-path="url(#da4c1f5aef)"><rect x="-207.2" width="1166.4" fill="#a81a19" height="1457.999957" y="-352.749993" fill-opacity="1"/></g></g></g></g></g></g></svg>